<?xml version="1.0" encoding="UTF-8" standalone="no"?>
<!DOCTYPE svg PUBLIC "-//W3C//DTD SVG 1.1//EN"
 "http://www.w3.org/Graphics/SVG/1.1/DTD/svg11.dtd">
<!-- Generated by graphviz version 9.0.0 (20230911.1827)
 -->
<!-- Title: G Pages: 1 -->
<svg width="1444pt" height="160pt"
 viewBox="0.00 0.00 1443.95 159.95" xmlns="http://www.w3.org/2000/svg" xmlns:xlink="http://www.w3.org/1999/xlink">
<g id="graph0" class="graph" transform="scale(1 1) rotate(0) translate(21.6 138.35)">
<title>G</title>
<polygon fill="#111111" stroke="none" points="-21.6,21.6 -21.6,-138.35 1422.35,-138.35 1422.35,21.6 -21.6,21.6"/>
<!-- ../package.json -->
<g id="node1" class="node">
<title>../package.json</title>
<path fill="none" stroke="#cfffac" d="M1391.83,-26.75C1391.83,-26.75 1284.17,-26.75 1284.17,-26.75 1279.71,-26.75 1275.25,-22.29 1275.25,-17.83 1275.25,-17.83 1275.25,-8.92 1275.25,-8.92 1275.25,-4.46 1279.71,0 1284.17,0 1284.17,0 1391.83,0 1391.83,0 1396.29,0 1400.75,-4.46 1400.75,-8.92 1400.75,-8.92 1400.75,-17.83 1400.75,-17.83 1400.75,-22.29 1396.29,-26.75 1391.83,-26.75"/>
<text text-anchor="middle" x="1338" y="-7.55" font-family="Arial" font-size="16.00" fill="#cfffac">../package.json</text>
</g>
<!-- app.gen.ts -->
<g id="node2" class="node">
<title>app.gen.ts</title>
<path fill="none" stroke="#c6c5fe" d="M620.83,-49.75C620.83,-49.75 546.92,-49.75 546.92,-49.75 542.46,-49.75 538,-45.29 538,-40.83 538,-40.83 538,-31.92 538,-31.92 538,-27.46 542.46,-23 546.92,-23 546.92,-23 620.83,-23 620.83,-23 625.29,-23 629.75,-27.46 629.75,-31.92 629.75,-31.92 629.75,-40.83 629.75,-40.83 629.75,-45.29 625.29,-49.75 620.83,-49.75"/>
<text text-anchor="middle" x="583.88" y="-30.55" font-family="Arial" font-size="16.00" fill="#c6c5fe">app.gen.ts</text>
</g>
<!-- app/__root.tsx -->
<g id="node3" class="node">
<title>app/__root.tsx</title>
<path fill="none" stroke="#cfffac" d="M921.46,-71.75C921.46,-71.75 820.54,-71.75 820.54,-71.75 816.08,-71.75 811.62,-67.29 811.62,-62.83 811.62,-62.83 811.62,-53.92 811.62,-53.92 811.62,-49.46 816.08,-45 820.54,-45 820.54,-45 921.46,-45 921.46,-45 925.92,-45 930.38,-49.46 930.38,-53.92 930.38,-53.92 930.38,-62.83 930.38,-62.83 930.38,-67.29 925.92,-71.75 921.46,-71.75"/>
<text text-anchor="middle" x="871" y="-52.55" font-family="Arial" font-size="16.00" fill="#cfffac">app/__root.tsx</text>
</g>
<!-- app.gen.ts&#45;&gt;app/__root.tsx -->
<g id="edge1" class="edge">
<title>app.gen.ts&#45;&gt;app/__root.tsx</title>
<path fill="none" stroke="#757575" d="M630.05,-39.86C675.7,-43.38 746.85,-48.87 799.84,-52.96"/>
<polygon fill="#757575" stroke="#757575" points="799.44,-56.44 809.68,-53.72 799.98,-49.46 799.44,-56.44"/>
</g>
<!-- app/index.tsx -->
<g id="node4" class="node">
<title>app/index.tsx</title>
<path fill="none" stroke="#c6c5fe" d="M918.08,-26.75C918.08,-26.75 823.92,-26.75 823.92,-26.75 819.46,-26.75 815,-22.29 815,-17.83 815,-17.83 815,-8.92 815,-8.92 815,-4.46 819.46,0 823.92,0 823.92,0 918.08,0 918.08,0 922.54,0 927,-4.46 927,-8.92 927,-8.92 927,-17.83 927,-17.83 927,-22.29 922.54,-26.75 918.08,-26.75"/>
<text text-anchor="middle" x="871" y="-7.55" font-family="Arial" font-size="16.00" fill="#c6c5fe">app/index.tsx</text>
</g>
<!-- app.gen.ts&#45;&gt;app/index.tsx -->
<g id="edge2" class="edge">
<title>app.gen.ts&#45;&gt;app/index.tsx</title>
<path fill="none" stroke="#757575" d="M630.05,-32.73C676.65,-28.97 749.83,-23.07 803.13,-18.77"/>
<polygon fill="#757575" stroke="#757575" points="803.32,-22.26 813.01,-17.97 802.76,-15.29 803.32,-22.26"/>
</g>
<!-- common/config.ts -->
<g id="node5" class="node">
<title>common/config.ts</title>
<path fill="none" stroke="#c6c5fe" d="M1183.46,-26.75C1183.46,-26.75 1057.79,-26.75 1057.79,-26.75 1053.33,-26.75 1048.88,-22.29 1048.88,-17.83 1048.88,-17.83 1048.88,-8.92 1048.88,-8.92 1048.88,-4.46 1053.33,0 1057.79,0 1057.79,0 1183.46,0 1183.46,0 1187.92,0 1192.38,-4.46 1192.38,-8.92 1192.38,-8.92 1192.38,-17.83 1192.38,-17.83 1192.38,-22.29 1187.92,-26.75 1183.46,-26.75"/>
<text text-anchor="middle" x="1120.62" y="-7.55" font-family="Arial" font-size="16.00" fill="#c6c5fe">common/config.ts</text>
</g>
<!-- app/index.tsx&#45;&gt;common/config.ts -->
<g id="edge3" class="edge">
<title>app/index.tsx&#45;&gt;common/config.ts</title>
<path fill="none" stroke="#757575" d="M927.26,-13.38C959.69,-13.38 1001.27,-13.38 1037.47,-13.38"/>
<polygon fill="#757575" stroke="#757575" points="1037.01,-16.88 1047.01,-13.38 1037,-9.88 1037.01,-16.88"/>
</g>
<!-- common/config.ts&#45;&gt;../package.json -->
<g id="edge4" class="edge">
<title>common/config.ts&#45;&gt;../package.json</title>
<path fill="none" stroke="#757575" d="M1192.74,-13.38C1215.49,-13.38 1240.7,-13.38 1263.61,-13.38"/>
<polygon fill="#757575" stroke="#757575" points="1263.48,-16.88 1273.48,-13.38 1263.48,-9.88 1263.48,-16.88"/>
</g>
<!-- common/ui/components/atoms/button.tsx -->
<g id="node6" class="node">
<title>common/ui/components/atoms/button.tsx</title>
<path fill="none" stroke="#c6c5fe" d="M731.08,-116.75C731.08,-116.75 436.67,-116.75 436.67,-116.75 432.21,-116.75 427.75,-112.29 427.75,-107.83 427.75,-107.83 427.75,-98.92 427.75,-98.92 427.75,-94.46 432.21,-90 436.67,-90 436.67,-90 731.08,-90 731.08,-90 735.54,-90 740,-94.46 740,-98.92 740,-98.92 740,-107.83 740,-107.83 740,-112.29 735.54,-116.75 731.08,-116.75"/>
<text text-anchor="middle" x="583.88" y="-97.55" font-family="Arial" font-size="16.00" fill="#c6c5fe">common/ui/components/atoms/button.tsx</text>
</g>
<!-- common/ui/utils/index.ts -->
<g id="node7" class="node">
<title>common/ui/utils/index.ts</title>
<path fill="none" stroke="#c6c5fe" d="M957.08,-116.75C957.08,-116.75 784.92,-116.75 784.92,-116.75 780.46,-116.75 776,-112.29 776,-107.83 776,-107.83 776,-98.92 776,-98.92 776,-94.46 780.46,-90 784.92,-90 784.92,-90 957.08,-90 957.08,-90 961.54,-90 966,-94.46 966,-98.92 966,-98.92 966,-107.83 966,-107.83 966,-112.29 961.54,-116.75 957.08,-116.75"/>
<text text-anchor="middle" x="871" y="-97.55" font-family="Arial" font-size="16.00" fill="#c6c5fe">common/ui/utils/index.ts</text>
</g>
<!-- common/ui/components/atoms/button.tsx&#45;&gt;common/ui/utils/index.ts -->
<g id="edge5" class="edge">
<title>common/ui/components/atoms/button.tsx&#45;&gt;common/ui/utils/index.ts</title>
<path fill="none" stroke="#757575" d="M740.37,-103.38C748.42,-103.38 756.42,-103.38 764.26,-103.38"/>
<polygon fill="#757575" stroke="#757575" points="764.11,-106.88 774.11,-103.38 764.11,-99.88 764.11,-106.88"/>
</g>
<!-- common/ui/utils/classnames.ts -->
<g id="node9" class="node">
<title>common/ui/utils/classnames.ts</title>
<path fill="none" stroke="#cfffac" d="M1230.33,-116.75C1230.33,-116.75 1010.92,-116.75 1010.92,-116.75 1006.46,-116.75 1002,-112.29 1002,-107.83 1002,-107.83 1002,-98.92 1002,-98.92 1002,-94.46 1006.46,-90 1010.92,-90 1010.92,-90 1230.33,-90 1230.33,-90 1234.79,-90 1239.25,-94.46 1239.25,-98.92 1239.25,-98.92 1239.25,-107.83 1239.25,-107.83 1239.25,-112.29 1234.79,-116.75 1230.33,-116.75"/>
<text text-anchor="middle" x="1120.62" y="-97.55" font-family="Arial" font-size="16.00" fill="#cfffac">common/ui/utils/classnames.ts</text>
</g>
<!-- common/ui/utils/index.ts&#45;&gt;common/ui/utils/classnames.ts -->
<g id="edge7" class="edge">
<title>common/ui/utils/index.ts&#45;&gt;common/ui/utils/classnames.ts</title>
<path fill="none" stroke="#757575" d="M966.32,-103.38C974.22,-103.38 982.29,-103.38 990.38,-103.38"/>
<polygon fill="#757575" stroke="#757575" points="990.32,-106.88 1000.32,-103.38 990.32,-99.88 990.32,-106.88"/>
</g>
<!-- common/ui/components/molecules/theme&#45;switch.tsx -->
<g id="node8" class="node">
<title>common/ui/components/molecules/theme&#45;switch.tsx</title>
<path fill="none" stroke="#c6c5fe" d="M382.83,-116.75C382.83,-116.75 8.92,-116.75 8.92,-116.75 4.46,-116.75 0,-112.29 0,-107.83 0,-107.83 0,-98.92 0,-98.92 0,-94.46 4.46,-90 8.92,-90 8.92,-90 382.83,-90 382.83,-90 387.29,-90 391.75,-94.46 391.75,-98.92 391.75,-98.92 391.75,-107.83 391.75,-107.83 391.75,-112.29 387.29,-116.75 382.83,-116.75"/>
<text text-anchor="middle" x="195.88" y="-97.55" font-family="Arial" font-size="16.00" fill="#c6c5fe">common/ui/components/molecules/theme&#45;switch.tsx</text>
</g>
<!-- common/ui/components/molecules/theme&#45;switch.tsx&#45;&gt;common/ui/components/atoms/button.tsx -->
<g id="edge6" class="edge">
<title>common/ui/components/molecules/theme&#45;switch.tsx&#45;&gt;common/ui/components/atoms/button.tsx</title>
<path fill="none" stroke="#757575" d="M392.14,-103.38C400.05,-103.38 407.96,-103.38 415.81,-103.38"/>
<polygon fill="#757575" stroke="#757575" points="415.76,-106.88 425.76,-103.38 415.76,-99.88 415.76,-106.88"/>
</g>
<!-- main.tsx -->
<g id="node10" class="node">
<title>main.tsx</title>
<path fill="none" stroke="#c6c5fe" d="M225.33,-49.75C225.33,-49.75 166.42,-49.75 166.42,-49.75 161.96,-49.75 157.5,-45.29 157.5,-40.83 157.5,-40.83 157.5,-31.92 157.5,-31.92 157.5,-27.46 161.96,-23 166.42,-23 166.42,-23 225.33,-23 225.33,-23 229.79,-23 234.25,-27.46 234.25,-31.92 234.25,-31.92 234.25,-40.83 234.25,-40.83 234.25,-45.29 229.79,-49.75 225.33,-49.75"/>
<text text-anchor="middle" x="195.88" y="-30.55" font-family="Arial" font-size="16.00" fill="#c6c5fe">main.tsx</text>
</g>
<!-- main.tsx&#45;&gt;app.gen.ts -->
<g id="edge8" class="edge">
<title>main.tsx&#45;&gt;app.gen.ts</title>
<path fill="none" stroke="#757575" d="M234.59,-36.38C302.66,-36.38 446.4,-36.38 526.3,-36.38"/>
<polygon fill="#757575" stroke="#757575" points="526.1,-39.88 536.1,-36.38 526.1,-32.88 526.1,-39.88"/>
</g>
</g>
</svg>
